<svg width="640" height="520" viewBox="0 0 640 520" fill="none" xmlns="http://www.w3.org/2000/svg">
  <defs>
    <linearGradient id="paint0" x1="110" y1="40" x2="560" y2="480" gradientUnits="userSpaceOnUse">
      <stop stop-color="#1E88E5" />
      <stop offset="1" stop-color="#00A39B" />
    </linearGradient>
    <linearGradient id="paint1" x1="0" y1="0" x2="1" y2="1">
      <stop stop-color="#E0F2FF" />
      <stop offset="1" stop-color="#F2FFFB" />
    </linearGradient>
  </defs>
  <rect x="32" y="20" width="576" height="480" rx="40" fill="url(#paint1)" />
  <rect x="80" y="70" width="480" height="380" rx="36" fill="white" stroke="#DDE7F2" stroke-width="2" />
  <circle cx="320" cy="260" r="120" fill="url(#paint0)" opacity="0.15" />
  <circle cx="320" cy="260" r="86" fill="url(#paint0)" opacity="0.25" />
  <circle cx="320" cy="260" r="52" fill="url(#paint0)" />
  <path d="M210 188C228 160 264 142 303 142H339C378 142 414 160 432 188" stroke="#1E88E5" stroke-width="8" stroke-linecap="round" />
  <path d="M208 332C230 364 266 384 307 384H333C374 384 410 364 432 332" stroke="#00A39B" stroke-width="8" stroke-linecap="round" />
  <rect x="118" y="116" width="120" height="28" rx="14" fill="#E3F2FD" />
  <rect x="402" y="116" width="120" height="28" rx="14" fill="#E0F7F5" />
  <rect x="118" y="376" width="120" height="28" rx="14" fill="#E0F7F5" />
  <rect x="402" y="376" width="120" height="28" rx="14" fill="#E3F2FD" />
</svg>
